<svg width="350" height="234" viewBox="0 0 350 234" fill="none" xmlns="http://www.w3.org/2000/svg">
<path d="M0.621094 116.875V233.751H175.31H349.999V116.875V0H175.31H0.621094V116.875ZM182.273 14.7764C193.546 18.7418 199.887 27.5492 198.436 37.108C197.773 41.282 196.115 44.4126 192.717 47.7937C187.371 53.1367 180.905 55.5575 172.202 55.5575C166.773 55.5575 163.582 54.8898 159.064 52.8026C151.852 49.4632 147.252 43.9117 146.092 37.108C144.683 28.9684 149.656 20.7036 158.525 16.3626C163.54 13.9416 166.524 13.3572 173.238 13.5241C178.253 13.6494 179.455 13.8163 182.273 14.7764ZM232.918 64.0727C239.218 65.7007 245.352 69.6242 249.248 74.6332C250.242 75.9273 250.532 76.5535 250.159 76.762C249.911 76.9291 247.963 77.3048 245.891 77.5969C230.225 79.6841 214.848 88.8254 204.031 102.475C188.448 122.176 185.962 144.926 198.105 157.156C202.664 161.789 208.466 164.043 215.843 164.043C224.381 164.043 235.447 160.078 243.901 154.025C253.641 147.012 262.22 139.082 283.149 117.752C291.438 109.362 298.194 102.725 298.194 102.976C298.194 104.228 292.971 116.124 287.957 126.267C273.368 155.736 256.708 175.981 238.306 186.541C229.686 191.509 220.941 193.846 211.16 193.846C206.808 193.804 204.819 193.638 202.042 192.886C186.749 188.921 176.015 175.563 171.415 154.651C170.627 150.978 169.715 142.672 169.715 138.998C169.715 131.986 171.29 122.928 173.943 114.663C179.703 96.6309 191.391 80.0178 204.363 71.3357C209.875 67.6626 216.092 64.9077 221.314 63.8639C224.132 63.3214 230.307 63.405 232.918 64.0727ZM169.55 72.0871C169.425 75.5097 169.094 80.0597 168.886 82.2302C167.436 96.5057 167.104 99.6362 166.566 103.727C165.778 110.03 163.747 122.719 162.711 127.728C161.385 134.365 158.691 145.76 157.696 148.807C157.448 149.475 156.619 152.105 155.79 154.609C148.122 178.402 133.741 198.354 117.081 208.539C110.408 212.588 104.813 214.633 94.7005 216.72C90.5975 217.555 79.4075 217.43 76.0918 216.47C69.6264 214.675 65.0674 211.628 62.2077 207.12C58.768 201.735 57.4004 194.431 58.685 188.169C61.1717 175.772 73.6464 161.33 87.4475 154.818C89.4369 153.858 91.6749 153.065 92.3382 153.023C93.6642 152.982 93.4985 152.773 96.8969 158.7L98.0575 160.704L96.8969 161.622C89.6442 167.716 86.3702 173.142 86.3285 179.195C86.2872 184.454 88.4422 187.251 93.7885 188.921C100.834 191.049 109.372 187.376 117.619 178.652C125.784 170.096 133.948 156.78 139.253 143.548C140.289 140.918 141.326 138.414 141.533 137.955C142.32 136.285 145.677 125.599 146.713 121.592C147.294 119.338 147.957 116.834 148.164 116.041C148.371 115.248 149.117 112.117 149.822 109.153C150.526 106.148 151.272 102.976 151.479 102.057C152.806 96.5057 157.655 73.7566 158.567 68.8729C158.815 67.6206 159.106 66.452 159.23 66.2432C159.313 66.0763 161.758 65.9511 164.618 65.9511H169.84L169.55 72.0871Z" fill="white"/>
</svg>
